<svg xmlns="http://www.w3.org/2000/svg" viewBox="0 0 64 64">
  <defs>
    <linearGradient id="g" x1="0%" y1="0%" x2="100%" y2="100%">
      <stop offset="0%" stop-color="#818cf8"/>
      <stop offset="100%" stop-color="#38bdf8"/>
    </linearGradient>
  </defs>
  <!-- Background -->
  <rect width="64" height="64" rx="14" fill="#0f1117"/>
  <!-- Left lobe outer -->
  <path d="M32 50 C24 50 13 44 11 34 C9 24 15 15 22 14 C23 9 27 7 32 10"
        stroke="url(#g)" stroke-width="2.8" fill="none" stroke-linecap="round" stroke-linejoin="round"/>
  <!-- Right lobe outer -->
  <path d="M32 50 C40 50 51 44 53 34 C55 24 49 15 42 14 C41 9 37 7 32 10"
        stroke="url(#g)" stroke-width="2.8" fill="none" stroke-linecap="round" stroke-linejoin="round"/>
  <!-- Centre stem -->
  <path d="M32 10 L32 50"
        stroke="url(#g)" stroke-width="1.8" fill="none" stroke-linecap="round" stroke-dasharray="3.5 3"/>
  <!-- Left gyri -->
  <path d="M16 28 Q20 24 24 28" stroke="url(#g)" stroke-width="2" fill="none" stroke-linecap="round"/>
  <path d="M15 38 Q19 34 23 38" stroke="url(#g)" stroke-width="2" fill="none" stroke-linecap="round"/>
  <!-- Right gyri -->
  <path d="M40 28 Q44 24 48 28" stroke="url(#g)" stroke-width="2" fill="none" stroke-linecap="round"/>
  <path d="M41 38 Q45 34 49 38" stroke="url(#g)" stroke-width="2" fill="none" stroke-linecap="round"/>
  <!-- Spark dots -->
  <circle cx="24" cy="20" r="1.5" fill="#818cf8" opacity="0.7"/>
  <circle cx="40" cy="20" r="1.5" fill="#38bdf8" opacity="0.7"/>
</svg>
